<?xml version="1.0" encoding="UTF-8" standalone="no"?>
<!-- Created with Inkscape (http://www.inkscape.org/) -->

<svg
   xmlns:dc="http://purl.org/dc/elements/1.1/"
   xmlns:cc="http://creativecommons.org/ns#"
   xmlns:rdf="http://www.w3.org/1999/02/22-rdf-syntax-ns#"
   xmlns:svg="http://www.w3.org/2000/svg"
   xmlns="http://www.w3.org/2000/svg"
   xmlns:sodipodi="http://sodipodi.sourceforge.net/DTD/sodipodi-0.dtd"
   xmlns:inkscape="http://www.inkscape.org/namespaces/inkscape"
   width="744.09448819"
   height="1052.3622047"
   id="svg3014"
   version="1.1"
   inkscape:version="0.48.5 r10040"
   sodipodi:docname="New document 4">
  <defs
     id="defs3016" />
  <sodipodi:namedview
     id="base"
     pagecolor="#ffffff"
     bordercolor="#666666"
     borderopacity="1.0"
     inkscape:pageopacity="0.0"
     inkscape:pageshadow="2"
     inkscape:zoom="0.35"
     inkscape:cx="375"
     inkscape:cy="520"
     inkscape:document-units="px"
     inkscape:current-layer="layer1"
     showgrid="false"
     inkscape:window-width="1366"
     inkscape:window-height="705"
     inkscape:window-x="-8"
     inkscape:window-y="-8"
     inkscape:window-maximized="1" />
  <metadata
     id="metadata3019">
    <rdf:RDF>
      <cc:Work
         rdf:about="">
        <dc:format>image/svg+xml</dc:format>
        <dc:type
           rdf:resource="http://purl.org/dc/dcmitype/StillImage" />
        <dc:title></dc:title>
      </cc:Work>
    </rdf:RDF>
  </metadata>
  <g
     inkscape:label="Layer 1"
     inkscape:groupmode="layer"
     id="layer1">
    <path
       style="fill:none;stroke:#000000;stroke-width:1px;stroke-linecap:butt;stroke-linejoin:miter;stroke-opacity:1"
       d="m 317.54758,582.9846 c 0.54743,-14.83187 3.18484,-27.71251 20.62394,-30.53416 6.42825,-3.72973 13.12434,-5.75695 21.96317,-10.98158 1.08634,-3.2439 3.44357,-11.25121 -1.07137,-15.26708 -0.74505,-4.11863 -1.19025,-9.69001 -5.08903,-11.78511 0,0 -2.39012,-8.64307 2.14275,-9.64237 -1.50424,-15.88907 5.42855,-22.84343 19.55257,-23.30238 11.92975,1.09361 19.36245,7.35105 18.21336,24.10591 4.0838,0.76992 1.60331,7.14187 0.80353,10.4459 -5.1693,2.77132 -2.59004,6.92787 -4.55334,10.98159 -4.74401,3.07868 -2.34367,8.28919 -1.60706,12.05295 8.83883,8.84757 22.23101,12.87337 25.71297,14.1957 8.89892,2.54438 17.04889,7.06326 18.21336,29.99847 z"
       id="path2999"
       inkscape:connector-curvature="0"
       sodipodi:nodetypes="cccccccccccccc" />
  </g>
</svg>
