<?xml version="1.0" encoding="UTF-8" standalone="no"?>
<!-- Created with Inkscape (http://www.inkscape.org/) -->

<svg
   xmlns:dc="http://purl.org/dc/elements/1.1/"
   xmlns:cc="http://creativecommons.org/ns#"
   xmlns:rdf="http://www.w3.org/1999/02/22-rdf-syntax-ns#"
   xmlns:svg="http://www.w3.org/2000/svg"
   xmlns="http://www.w3.org/2000/svg"
   xmlns:sodipodi="http://sodipodi.sourceforge.net/DTD/sodipodi-0.dtd"
   xmlns:inkscape="http://www.inkscape.org/namespaces/inkscape"
   width="116.09"
   height="105"
   id="svg3056"
   version="1.1"
   inkscape:version="0.48.5 r10040"
   sodipodi:docname="human red.svg">
  <defs
     id="defs3058" />
  <sodipodi:namedview
     id="base"
     pagecolor="#ffffff"
     bordercolor="#666666"
     borderopacity="1.0"
     inkscape:pageopacity="0.0"
     inkscape:pageshadow="2"
     inkscape:zoom="1.8542727"
     inkscape:cx="100.73821"
     inkscape:cy="-1.5991259"
     inkscape:document-units="px"
     inkscape:current-layer="layer1"
     showgrid="true"
     inkscape:window-width="1366"
     inkscape:window-height="705"
     inkscape:window-x="-8"
     inkscape:window-y="-8"
     inkscape:window-maximized="1"
     inkscape:snap-to-guides="false">
    <inkscape:grid
       type="xygrid"
       id="grid3011"
       empspacing="5"
       visible="true"
       enabled="true"
       snapvisiblegridlinesonly="true" />
  </sodipodi:namedview>
  <metadata
     id="metadata3061">
    <rdf:RDF>
      <cc:Work
         rdf:about="">
        <dc:format>image/svg+xml</dc:format>
        <dc:type
           rdf:resource="http://purl.org/dc/dcmitype/StillImage" />
        <dc:title />
      </cc:Work>
    </rdf:RDF>
  </metadata>
  <g
     inkscape:label="Layer 1"
     inkscape:groupmode="layer"
     id="layer1"
     transform="translate(0,-947.35899)">
    <rect
       style="fill:#e60000;fill-opacity:1"
       id="rect3036"
       width="200.9901"
       height="147.52475"
       x="-43.780758"
       y="926.31409" />
    <path
       inkscape:connector-curvature="0"
       style="fill:#ffffff"
       d="m 57.90488,951.67932 c -1.07712,-0.006 -2.18144,0.0804 -3.3125,0.25 -8.87354,1.33067 -14.247,7.74528 -14.25,17 -10e-4,3.30327 -0.53367,5.47927 -1.5,6.28125 -2.13086,1.76846 -1.87375,7.17729 0.4375,9.15625 1.05852,0.90633 2.22976,3.33265 2.59375,5.40625 0.36399,2.0736 1.27554,4.76266 2.03125,5.96875 2.1487,3.42924 1.77806,12.72198 -0.59375,15.09378 -2.39071,2.3907 -14.07126,8.3539 -22.78125,11.625 -3.53961,1.3293 -7.88146,3.3011 -9.625,4.375 -4.13999,2.5497 -7.92689,10.5184 -8.78125,18.4375 l -0.65625,6.1875 56.625,0 c 53.45581,0 56.60797,-0.083 56.15625,-1.7188 -0.26319,-0.9529 -0.78695,-3.9504 -1.15625,-6.6562 -0.82627,-6.0542 -4.64093,-13.8282 -7.8125,-15.9063 -1.30169,-0.8529 -5.85978,-2.8888 -10.125,-4.5312 -22.20273,-8.5495 -29.28306,-15.9601 -24.34375,-25.46878 1.03855,-1.99932 2.19256,-5.26264 2.5625,-7.25 0.36994,-1.98736 1.30574,-4.15851 2.09375,-4.8125 1.94514,-1.61432 3.03939,-7.77311 1.625,-9.1875 -0.61278,-0.61279 -1.122,-2.69183 -1.125,-4.625 -0.0182,-11.57038 -7.65036,-19.57106 -18.0625,-19.625 z"
       id="path3034" />
    <path
       style="fill:#e60000;fill-opacity:0"
       d="m -43.684996,52.723555 0,-73.613768 100.308871,0 100.308875,0 0,73.613768 0,73.613765 -100.308875,0 -100.308871,0 0,-73.613765 z M 113.8411,103.31163 c 1.61396,-1.61452 -1.96859,-15.096256 -5.34277,-20.105757 C 106.21126,79.810369 104.68437,78.848337 95.99241,75.32646 78.132,68.089634 69.566955,61.637519 69.566955,55.419955 c 0,-0.760627 0.725859,-3.265178 1.613026,-5.565665 0.887162,-2.300492 1.999091,-5.482748 2.470952,-7.071684 0.471867,-1.588935 1.453875,-3.789507 2.182252,-4.890154 C 77.641436,35.16 78.328924,30.657027 77.312019,28.206232 76.885965,27.17942 76.398712,24.873933 76.229238,23.08293 75.09708,11.118319 68.349254,4.2605274 57.702465,4.2542263 52.290559,4.2510444 48.24487,5.771165 45.029032,9.0161882 41.837258,12.236928 40.693208,15.137084 39.995959,21.774977 c -0.36205,3.446766 -0.803059,5.071161 -1.709689,6.297449 -1.651143,2.233287 -1.316247,6.212299 0.777097,9.232998 0.811267,1.170653 2.035057,3.905224 2.719541,6.076819 0.684489,2.171601 1.634209,4.85063 2.110498,5.953396 1.089112,2.521668 1.153504,9.475597 0.110847,11.971023 -0.421389,1.008535 -1.791883,2.519219 -3.100946,3.418154 -3.24942,2.231376 -11.918927,6.518836 -19.905481,9.844156 C 10.911834,78.768424 9.4334534,79.690953 7.0358012,83.281466 4.1356204,87.624522 2.371107,93.381917 1.3946174,101.68797 l -0.3039067,2.58504 56.0528283,-0.15821 c 42.59263,-0.12023 56.207641,-0.31309 56.697561,-0.80317 l 0,0 z"
       id="path2996"
       inkscape:connector-curvature="0"
       transform="translate(0,947.35899)" />
    <path
       style="fill:#e60000;fill-opacity:0"
       d="m -43.361419,52.723555 0,-73.613768 100.039223,0 100.039226,0 0,73.613768 0,73.613765 -100.039226,0 -100.039223,0 0,-73.613765 z M 110.99321,103.74987 c 1.69531,-0.21193 3.21662,-0.51958 3.3807,-0.68366 0.49076,-0.49075 -1.83359,-11.58561 -3.00544,-14.34597 -0.59783,-1.408218 -1.85088,-3.829906 -2.78456,-5.381533 -1.94627,-3.23439 -4.48418,-4.765432 -14.964398,-9.027567 C 78.451026,68.142366 71.190707,62.802725 69.842297,56.824058 c -0.339707,-1.506224 -0.132628,-2.776857 0.931417,-5.715147 0.752532,-2.078065 1.933227,-5.532147 2.623762,-7.675732 0.690535,-2.143584 1.724282,-4.570412 2.297218,-5.39295 2.124548,-3.050123 2.875748,-7.204285 1.70002,-9.401156 C 77.07283,28.037629 76.48001,25.20206 76.077335,22.337811 75.235015,16.346375 74.009408,13.229155 71.211837,9.9628629 66.099013,3.9934017 55.637984,2.4125986 48.164617,6.4801152 43.235531,9.1628597 41.001437,13.168436 40.15785,20.83568 c -0.357493,3.249196 -0.924982,5.564911 -1.669015,6.810657 -1.795432,3.006107 -1.542492,6.161516 0.801397,9.997295 1.08065,1.768488 2.255213,4.428847 2.610134,5.911908 0.354921,1.483061 1.146175,3.667206 1.758345,4.853655 1.341787,2.600551 1.593735,10.267681 0.428469,13.038827 -1.181816,2.810487 -8.59943,7.063675 -22.412517,12.851114 C 9.2806905,79.491986 7.8989477,80.548324 4.8827959,87.136471 3.3662325,90.44908 1.4187547,98.891667 1.4071512,102.20387 l -0.00708,2.02236 53.2553818,-0.0455 c 29.29046,-0.025 54.642447,-0.21891 56.337757,-0.43085 l 0,10e-6 z"
       id="path3766"
       inkscape:connector-curvature="0"
       transform="translate(0,947.35899)" />
    <path
       style="fill:#e60000;fill-opacity:0"
       d="m -43.361419,52.723555 0,-73.613768 100.039223,0 100.039226,0 0,73.613768 0,73.613765 -100.039226,0 -100.039223,0 0,-73.613765 z M 110.99321,103.74987 c 1.69531,-0.21193 3.21662,-0.51958 3.3807,-0.68366 0.49076,-0.49075 -1.83359,-11.58561 -3.00544,-14.34597 -0.59783,-1.408218 -1.85088,-3.829906 -2.78456,-5.381533 -1.94627,-3.23439 -4.48418,-4.765432 -14.964398,-9.027567 C 78.451026,68.142366 71.190707,62.802725 69.842297,56.824058 c -0.339707,-1.506224 -0.132628,-2.776857 0.931417,-5.715147 0.752532,-2.078065 1.933227,-5.532147 2.623762,-7.675732 0.690535,-2.143584 1.724282,-4.570412 2.297218,-5.39295 2.124548,-3.050123 2.875748,-7.204285 1.70002,-9.401156 C 77.07283,28.037629 76.48001,25.20206 76.077335,22.337811 75.235015,16.346375 74.009408,13.229155 71.211837,9.9628629 66.099013,3.9934017 55.637984,2.4125986 48.164617,6.4801152 43.235531,9.1628597 41.001437,13.168436 40.15785,20.83568 c -0.357493,3.249196 -0.924982,5.564911 -1.669015,6.810657 -1.795432,3.006107 -1.542492,6.161516 0.801397,9.997295 1.08065,1.768488 2.255213,4.428847 2.610134,5.911908 0.354921,1.483061 1.146175,3.667206 1.758345,4.853655 1.341787,2.600551 1.593735,10.267681 0.428469,13.038827 -1.181816,2.810487 -8.59943,7.063675 -22.412517,12.851114 C 9.2806905,79.491986 7.8989477,80.548324 4.8827959,87.136471 3.3662325,90.44908 1.4187547,98.891667 1.4071512,102.20387 l -0.00708,2.02236 53.2553818,-0.0455 c 29.29046,-0.025 54.642447,-0.21891 56.337757,-0.43085 l 0,10e-6 z"
       id="path3768"
       inkscape:connector-curvature="0"
       transform="translate(0,947.35899)" />
    <path
       style="fill:#e60000;fill-opacity:0"
       d="m -43.361419,52.723555 0,-73.613768 100.039223,0 100.039226,0 0,73.613768 0,73.613765 -100.039226,0 -100.039223,0 0,-73.613765 z M 110.99321,103.74987 c 1.69531,-0.21193 3.21662,-0.51958 3.3807,-0.68366 0.49076,-0.49075 -1.83359,-11.58561 -3.00544,-14.34597 -0.59783,-1.408218 -1.85088,-3.829906 -2.78456,-5.381533 -1.94627,-3.23439 -4.48418,-4.765432 -14.964398,-9.027567 C 78.451026,68.142366 71.190707,62.802725 69.842297,56.824058 c -0.339707,-1.506224 -0.132628,-2.776857 0.931417,-5.715147 0.752532,-2.078065 1.933227,-5.532147 2.623762,-7.675732 0.690535,-2.143584 1.724282,-4.570412 2.297218,-5.39295 2.124548,-3.050123 2.875748,-7.204285 1.70002,-9.401156 C 77.07283,28.037629 76.48001,25.20206 76.077335,22.337811 75.235015,16.346375 74.009408,13.229155 71.211837,9.9628629 66.099013,3.9934017 55.637984,2.4125986 48.164617,6.4801152 43.235531,9.1628597 41.001437,13.168436 40.15785,20.83568 c -0.357493,3.249196 -0.924982,5.564911 -1.669015,6.810657 -1.795432,3.006107 -1.542492,6.161516 0.801397,9.997295 1.08065,1.768488 2.255213,4.428847 2.610134,5.911908 0.354921,1.483061 1.146175,3.667206 1.758345,4.853655 1.341787,2.600551 1.593735,10.267681 0.428469,13.038827 -1.181816,2.810487 -8.59943,7.063675 -22.412517,12.851114 C 9.2806905,79.491986 7.8989477,80.548324 4.8827959,87.136471 3.3662325,90.44908 1.4187547,98.891667 1.4071512,102.20387 l -0.00708,2.02236 53.2553818,-0.0455 c 29.29046,-0.025 54.642447,-0.21891 56.337757,-0.43085 l 0,10e-6 z"
       id="path3770"
       inkscape:connector-curvature="0"
       transform="translate(0,947.35899)" />
    <path
       style="fill:#e60000;fill-opacity:0"
       d="m -43.361419,52.723555 0,-73.613768 100.039223,0 100.039226,0 0,73.613768 0,73.613765 -100.039226,0 -100.039223,0 0,-73.613765 z M 110.99321,103.74987 c 1.69531,-0.21193 3.21662,-0.51958 3.3807,-0.68366 0.49076,-0.49075 -1.83359,-11.58561 -3.00544,-14.34597 -0.59783,-1.408218 -1.85088,-3.829906 -2.78456,-5.381533 -1.94627,-3.23439 -4.48418,-4.765432 -14.964398,-9.027567 C 78.451026,68.142366 71.190707,62.802725 69.842297,56.824058 c -0.339707,-1.506224 -0.132628,-2.776857 0.931417,-5.715147 0.752532,-2.078065 1.933227,-5.532147 2.623762,-7.675732 0.690535,-2.143584 1.724282,-4.570412 2.297218,-5.39295 2.124548,-3.050123 2.875748,-7.204285 1.70002,-9.401156 C 77.07283,28.037629 76.48001,25.20206 76.077335,22.337811 75.235015,16.346375 74.009408,13.229155 71.211837,9.9628629 66.099013,3.9934017 55.637984,2.4125986 48.164617,6.4801152 43.235531,9.1628597 41.001437,13.168436 40.15785,20.83568 c -0.357493,3.249196 -0.924982,5.564911 -1.669015,6.810657 -1.795432,3.006107 -1.542492,6.161516 0.801397,9.997295 1.08065,1.768488 2.255213,4.428847 2.610134,5.911908 0.354921,1.483061 1.146175,3.667206 1.758345,4.853655 1.341787,2.600551 1.593735,10.267681 0.428469,13.038827 -1.181816,2.810487 -8.59943,7.063675 -22.412517,12.851114 C 9.2806905,79.491986 7.8989477,80.548324 4.8827959,87.136471 3.3662325,90.44908 1.4187547,98.891667 1.4071512,102.20387 l -0.00708,2.02236 53.2553818,-0.0455 c 29.29046,-0.025 54.642447,-0.21891 56.337757,-0.43085 l 0,10e-6 z"
       id="path3772"
       inkscape:connector-curvature="0"
       transform="translate(0,947.35899)" />
    <path
       style="fill:#e60000;fill-opacity:0"
       d="m -43.361419,52.723555 0,-73.613768 100.039223,0 100.039226,0 0,73.613768 0,73.613765 -100.039226,0 -100.039223,0 0,-73.613765 z M 110.99321,103.74987 c 1.69531,-0.21193 3.21662,-0.51958 3.3807,-0.68366 0.49076,-0.49075 -1.83359,-11.58561 -3.00544,-14.34597 -0.59783,-1.408218 -1.85088,-3.829906 -2.78456,-5.381533 -1.94627,-3.23439 -4.48418,-4.765432 -14.964398,-9.027567 C 78.451026,68.142366 71.190707,62.802725 69.842297,56.824058 c -0.339707,-1.506224 -0.132628,-2.776857 0.931417,-5.715147 0.752532,-2.078065 1.933227,-5.532147 2.623762,-7.675732 0.690535,-2.143584 1.724282,-4.570412 2.297218,-5.39295 2.124548,-3.050123 2.875748,-7.204285 1.70002,-9.401156 C 77.07283,28.037629 76.48001,25.20206 76.077335,22.337811 75.235015,16.346375 74.009408,13.229155 71.211837,9.9628629 66.099013,3.9934017 55.637984,2.4125986 48.164617,6.4801152 43.235531,9.1628597 41.001437,13.168436 40.15785,20.83568 c -0.357493,3.249196 -0.924982,5.564911 -1.669015,6.810657 -1.795432,3.006107 -1.542492,6.161516 0.801397,9.997295 1.08065,1.768488 2.255213,4.428847 2.610134,5.911908 0.354921,1.483061 1.146175,3.667206 1.758345,4.853655 1.341787,2.600551 1.593735,10.267681 0.428469,13.038827 -1.181816,2.810487 -8.59943,7.063675 -22.412517,12.851114 C 9.2806905,79.491986 7.8989477,80.548324 4.8827959,87.136471 3.3662325,90.44908 1.4187547,98.891667 1.4071512,102.20387 l -0.00708,2.02236 53.2553818,-0.0455 c 29.29046,-0.025 54.642447,-0.21891 56.337757,-0.43085 l 0,10e-6 z"
       id="path3774"
       inkscape:connector-curvature="0"
       transform="translate(0,947.35899)" />
    <path
       style="fill:#e60000;fill-opacity:0;fill-rule:nonzero;stroke:none"
       d="m -43.361419,52.723555 0,-73.613768 100.039223,0 100.039226,0 0,73.613768 0,73.613765 -100.039226,0 -100.039223,0 0,-73.613765 z M 110.99321,103.74987 c 1.69531,-0.21193 3.21662,-0.51958 3.3807,-0.68366 0.49076,-0.49075 -1.83359,-11.58561 -3.00544,-14.34597 -0.59783,-1.408218 -1.85088,-3.829906 -2.78456,-5.381533 -1.94627,-3.23439 -4.48418,-4.765432 -14.964398,-9.027567 C 78.451026,68.142366 71.190707,62.802725 69.842297,56.824058 c -0.339707,-1.506224 -0.132628,-2.776857 0.931417,-5.715147 0.752532,-2.078065 1.933227,-5.532147 2.623762,-7.675732 0.690535,-2.143584 1.724282,-4.570412 2.297218,-5.39295 2.124548,-3.050123 2.875748,-7.204285 1.70002,-9.401156 C 77.07283,28.037629 76.48001,25.20206 76.077335,22.337811 75.235015,16.346375 74.009408,13.229155 71.211837,9.9628629 66.099013,3.9934017 55.637984,2.4125986 48.164617,6.4801152 43.235531,9.1628597 41.001437,13.168436 40.15785,20.83568 c -0.357493,3.249196 -0.924982,5.564911 -1.669015,6.810657 -1.795432,3.006107 -1.542492,6.161516 0.801397,9.997295 1.08065,1.768488 2.255213,4.428847 2.610134,5.911908 0.354921,1.483061 1.146175,3.667206 1.758345,4.853655 1.341787,2.600551 1.593735,10.267681 0.428469,13.038827 -1.181816,2.810487 -8.59943,7.063675 -22.412517,12.851114 C 9.2806905,79.491986 7.8989477,80.548324 4.8827959,87.136471 3.3662325,90.44908 1.4187547,98.891667 1.4071512,102.20387 l -0.00708,2.02236 53.2553818,-0.0455 c 29.29046,-0.025 54.642447,-0.21891 56.337757,-0.43085 l 0,10e-6 z"
       id="path3776"
       inkscape:connector-curvature="0"
       transform="translate(0,947.35899)" />
    <rect
       style="fill:#e60000;fill-opacity:0;fill-rule:nonzero;stroke:none"
       id="rect3778"
       width="35"
       height="55"
       x="205"
       y="25"
       transform="translate(0,947.35899)" />
    <path
       style="fill:#e60000;fill-opacity:0;fill-rule:nonzero;stroke:none"
       d="m -43.361419,52.723555 0,-73.613768 100.039223,0 100.039226,0 0,73.613768 0,73.613765 -100.039226,0 -100.039223,0 0,-73.613765 z M 110.99321,103.74987 c 1.69531,-0.21193 3.21662,-0.51958 3.3807,-0.68366 0.49076,-0.49075 -1.83359,-11.58561 -3.00544,-14.34597 -0.59783,-1.408218 -1.85088,-3.829906 -2.78456,-5.381533 -1.94627,-3.23439 -4.48418,-4.765432 -14.964398,-9.027567 C 78.451026,68.142366 71.190707,62.802725 69.842297,56.824058 c -0.339707,-1.506224 -0.132628,-2.776857 0.931417,-5.715147 0.752532,-2.078065 1.933227,-5.532147 2.623762,-7.675732 0.690535,-2.143584 1.724282,-4.570412 2.297218,-5.39295 2.124548,-3.050123 2.875748,-7.204285 1.70002,-9.401156 C 77.07283,28.037629 76.48001,25.20206 76.077335,22.337811 75.235015,16.346375 74.009408,13.229155 71.211837,9.9628629 66.099013,3.9934017 55.637984,2.4125986 48.164617,6.4801152 43.235531,9.1628597 41.001437,13.168436 40.15785,20.83568 c -0.357493,3.249196 -0.924982,5.564911 -1.669015,6.810657 -1.795432,3.006107 -1.542492,6.161516 0.801397,9.997295 1.08065,1.768488 2.255213,4.428847 2.610134,5.911908 0.354921,1.483061 1.146175,3.667206 1.758345,4.853655 1.341787,2.600551 1.593735,10.267681 0.428469,13.038827 -1.181816,2.810487 -8.59943,7.063675 -22.412517,12.851114 C 9.2806905,79.491986 7.8989477,80.548324 4.8827959,87.136471 3.3662325,90.44908 1.4187547,98.891667 1.4071512,102.20387 l -0.00708,2.02236 53.2553818,-0.0455 c 29.29046,-0.025 54.642447,-0.21891 56.337757,-0.43085 l 0,10e-6 z"
       id="path3780"
       inkscape:connector-curvature="0"
       transform="translate(0,947.35899)" />
  </g>
</svg>
