<?xml version="1.0" encoding="utf-8"?>
<!-- Generator: Adobe Illustrator 16.0.0, SVG Export Plug-In . SVG Version: 6.00 Build 0)  -->
<!DOCTYPE svg PUBLIC "-//W3C//DTD SVG 1.1//EN" "http://www.w3.org/Graphics/SVG/1.1/DTD/svg11.dtd">
<svg version="1.1" id="Capa_1" xmlns="http://www.w3.org/2000/svg" xmlns:xlink="http://www.w3.org/1999/xlink" x="0px" y="0px"
	 width="33.762px" height="32.557px" viewBox="0 0 33.762 32.557" enable-background="new 0 0 33.762 32.557" xml:space="preserve">
<path fill="#434343" d="M30.446,2.508h-2.037V0h-3.557v2.508H9.013V0H5.46v2.508H3.315C1.485,2.508,0,3.994,0,5.825V29.24
	c0,1.83,1.484,3.316,3.314,3.316h27.131c1.832,0,3.315-1.486,3.315-3.316V5.825C33.762,3.994,32.278,2.508,30.446,2.508
	 M31.217,29.57H2.546V8.652h28.671V29.57z M18.702,11.939H15.17v3.53h3.532V11.939z M23.547,17.424h-3.53v3.531h3.53V17.424z
	 M23.547,22.955h-3.53v3.53h3.53V22.955z M23.547,11.939h-3.53v3.53h3.53V11.939z M28.393,17.424H24.86v3.531h3.532L28.393,17.424
	L28.393,17.424z M28.393,11.939H24.86v3.53h3.532L28.393,11.939L28.393,11.939z M13.857,11.939h-3.53v3.53h3.53V11.939z
	 M13.857,22.955h-3.53v3.53h3.53V22.955z M13.857,17.424h-3.53v3.531h3.53V17.424z M9.013,17.424h-3.53v3.531h3.53V17.424z
	 M9.013,22.955h-3.53v3.53h3.53V22.955z M18.702,22.955H15.17v3.53h3.532V22.955z M18.702,17.424H15.17v3.531h3.532V17.424z"/>
</svg>
