<?xml version="1.0" encoding="utf-8"?>
<!-- Generator: Adobe Illustrator 16.0.0, SVG Export Plug-In . SVG Version: 6.00 Build 0)  -->
<!DOCTYPE svg PUBLIC "-//W3C//DTD SVG 1.1//EN" "http://www.w3.org/Graphics/SVG/1.1/DTD/svg11.dtd">
<svg version="1.1" id="Capa_1" xmlns="http://www.w3.org/2000/svg" xmlns:xlink="http://www.w3.org/1999/xlink" x="0px" y="0px"
	 width="32.496px" height="33.162px" viewBox="0 0 32.496 33.162" enable-background="new 0 0 32.496 33.162" xml:space="preserve">
<path fill="#434343" d="M30.947,18.644l1.232-1.234c0.371-0.371,0.371-0.974,0-1.343l-0.318-0.319l-0.653-0.656l-0.319-0.318
	c-0.371-0.372-0.973-0.372-1.344,0L28.318,16c-0.928-0.619-1.973-1.071-3.09-1.327v-1.87c0-0.591-0.48-1.07-1.07-1.07H23.65h-1.043
	H22.1c-0.591,0-1.07,0.479-1.07,1.07v1.87c-4.159,0.954-7.265,4.672-7.267,9.123c0.002,5.174,4.193,9.363,9.367,9.365
	c5.172-0.002,9.365-4.191,9.367-9.365C32.496,21.892,31.923,20.122,30.947,18.644 M23.128,31.104
	c-4.037-0.008-7.303-3.273-7.311-7.309c0.008-4.037,3.273-7.305,7.311-7.312c4.037,0.006,7.304,3.274,7.312,7.312
	C30.432,27.831,27.166,31.097,23.128,31.104 M23.128,17.989c-0.454,0-0.823,0.365-0.823,0.82v4.986c0,0.452,0.369,0.821,0.823,0.821
	c0.453,0,0.822-0.369,0.822-0.821V18.81C23.951,18.354,23.582,17.989,23.128,17.989 M12.026,28.536H3.201
	c-0.178,0-0.323-0.145-0.323-0.323V5.411c0-0.18,0.146-0.323,0.323-0.323h2.374c0.571,0.9,1.832,1.92,2.512,1.92h5.79h5.791
	c0.68,0,1.939-1.02,2.514-1.92h2.476c0.178,0,0.321,0.143,0.321,0.323v3.791c0,0.793,0.646,1.438,1.439,1.438
	c0.796,0,1.439-0.644,1.439-1.438h-0.002V5.411c0-1.769-1.432-3.201-3.199-3.201h-4.531L19.167,0h-5.29H8.588L7.631,2.21h-4.43
	C1.433,2.21,0,3.642,0,5.411v22.802c0,1.769,1.433,3.199,3.201,3.199h8.825c0.795,0,1.44-0.646,1.44-1.438
	C13.466,29.179,12.821,28.536,12.026,28.536 M18.744,10.4H6.957v2.467h11.787V10.4z M6.956,23.83h5.277v-2.468H6.956V23.83z
	 M14.151,15.881H6.957v2.468h7.194V15.881z"/>
</svg>
