<?xml version="1.0" encoding="utf-8"?>
<!-- Generator: Adobe Illustrator 13.0.0, SVG Export Plug-In . SVG Version: 6.00 Build 14948)  -->
<svg version="1.2" baseProfile="tiny" id="Capa_1" xmlns="http://www.w3.org/2000/svg" xmlns:xlink="http://www.w3.org/1999/xlink"
	 x="0px" y="0px" width="33.899px" height="30.019px" viewBox="0 0 33.899 30.019" xml:space="preserve">
<path fill="#E60000" d="M33.124,25.121c-0.961-2.329-2.759-3.376-3.633-3.683c-0.874-0.309-1.285-0.206-1.524-0.273
	c-0.239-0.069-0.375-0.148-0.797-0.391c-0.78-0.449-2.076-1.165-3.109-1.599c-1.594-0.668-2.674-1.336-3.032-2.364
	c-0.359-1.027-0.309-2.569-0.154-2.775c0.154-0.206,0.719-0.617,0.977-1.954c0.257-1.336,0.309-1.593,0.565-1.747
	s0.617-0.052,0.771-1.593c0.153-1.542-0.463-1.799-0.721-1.901c0,0,0.36-2.57-0.514-4.164C21.212,1.329,19.94,0.026,16.949,0
	c-2.991,0.026-4.263,1.329-5.003,2.677c-0.873,1.593-0.514,4.164-0.514,4.164c-0.256,0.103-0.873,0.359-0.719,1.901
	c0.154,1.542,0.514,1.439,0.772,1.593c0.255,0.154,0.309,0.411,0.564,1.747c0.258,1.337,0.823,1.748,0.977,1.954
	c0.153,0.206,0.206,1.748-0.154,2.775c-0.36,1.028-1.44,1.696-3.032,2.364c-1.035,0.434-2.33,1.149-3.11,1.599
	c-0.421,0.242-0.556,0.321-0.796,0.391c-0.24,0.067-0.652-0.035-1.525,0.273c-0.874,0.307-2.672,1.354-3.631,3.683
	c-0.982,2.383-0.754,4.898-0.754,4.898h16.926h16.927C33.876,30.019,34.104,27.503,33.124,25.121"/>
</svg>
