<?xml version="1.0" encoding="utf-8"?>
<!-- Generator: Adobe Illustrator 16.0.0, SVG Export Plug-In . SVG Version: 6.00 Build 0)  -->
<!DOCTYPE svg PUBLIC "-//W3C//DTD SVG 1.1//EN" "http://www.w3.org/Graphics/SVG/1.1/DTD/svg11.dtd">
<svg version="1.1" id="Capa_1" xmlns="http://www.w3.org/2000/svg" xmlns:xlink="http://www.w3.org/1999/xlink" x="0px" y="0px"
	 width="33.898px" height="30.02px" viewBox="0 0 33.898 30.02" enable-background="new 0 0 33.898 30.02" xml:space="preserve">
<path fill="#434343" d="M33.124,25.121c-0.961-2.329-2.759-3.376-3.633-3.683c-0.874-0.31-1.285-0.206-1.524-0.273
	c-0.239-0.068-0.375-0.147-0.797-0.391c-0.78-0.449-2.076-1.165-3.109-1.6c-1.594-0.668-2.674-1.336-3.032-2.363
	s-0.309-2.569-0.153-2.775c0.153-0.206,0.719-0.617,0.977-1.954c0.257-1.336,0.31-1.593,0.565-1.747
	c0.256-0.153,0.617-0.052,0.771-1.593c0.153-1.542-0.463-1.799-0.721-1.901c0,0,0.36-2.569-0.514-4.163
	C21.212,1.329,19.94,0.026,16.949,0c-2.991,0.026-4.264,1.329-5.004,2.678c-0.873,1.593-0.514,4.163-0.514,4.163
	c-0.256,0.104-0.873,0.359-0.719,1.901s0.514,1.439,0.771,1.593c0.256,0.154,0.31,0.411,0.564,1.747
	c0.258,1.337,0.823,1.748,0.977,1.954s0.206,1.748-0.153,2.775c-0.36,1.027-1.44,1.695-3.032,2.363
	c-1.035,0.435-2.33,1.149-3.11,1.6c-0.421,0.242-0.556,0.321-0.796,0.391c-0.24,0.067-0.651-0.035-1.524,0.273
	c-0.874,0.307-2.673,1.354-3.632,3.683c-0.981,2.383-0.754,4.898-0.754,4.898H16.95h16.927
	C33.876,30.019,34.104,27.503,33.124,25.121"/>
</svg>
