<?xml version="1.0" encoding="utf-8"?>
<!-- Generator: Adobe Illustrator 16.0.0, SVG Export Plug-In . SVG Version: 6.00 Build 0)  -->
<!DOCTYPE svg PUBLIC "-//W3C//DTD SVG 1.1//EN" "http://www.w3.org/Graphics/SVG/1.1/DTD/svg11.dtd">
<svg version="1.1" id="Capa_1" xmlns="http://www.w3.org/2000/svg" xmlns:xlink="http://www.w3.org/1999/xlink" x="0px" y="0px"
	 width="37.532px" height="34.873px" viewBox="0 0 37.532 34.873" enable-background="new 0 0 37.532 34.873" xml:space="preserve">
<path fill="#434343" d="M37.532,11.095c-0.535-2.306-1.832-4.684-3.807-5.28C30,4.688,28.149,6.002,28.149,6.002
	C26.596,2.316,25.522,1.123,23,0.265c-2.521-0.857-5.414,0.643-5.414,0.643c5.308-0.053,6.11,4.933,6.11,4.933
	C23.215,5.251,20,2.784,17.159,3.91c-2.842,1.126-3.967,3.7-3.967,3.7c5.574-2.626,8.471,0.697,8.471,0.697s-2.358-0.16-4.557,1.877
	c-2.199,2.036-1.449,5.468-1.449,5.468c3.379-4.718,6.861-3.807,6.861-3.807c-5.438,8.416-6.504,18.443-6.586,19.291
	c-0.008,0-0.013,0-0.019,0c-1.54-9.449-6.503-15.175-6.503-15.175c4.223-0.764,6.274,3.981,6.274,3.981s0.521-2.292-1.007-4.906
	c-1.527-2.613-4.583-1.97-4.583-1.97c1.931-2.654,5.508-1.488,5.508-1.488s-2.011-2.573-5.468-1.89
	C6.676,10.372,5.79,13.87,5.79,13.87c-6.07-0.361-5.789,5.831-5.789,5.831c1.206-2.695,3.779-3.297,3.779-3.297
	c-4.504,4.303-0.522,8.646-0.522,8.646c-0.925-4.264,1.649-6.475,1.649-6.475C3.62,24.201,9.934,25.53,9.934,25.53
	c-3.7-3.538-1.729-8.163-1.729-8.163c3.771,5.21,4.525,12.466,4.643,13.956c-4.984,0.48-9.131,1.797-11.41,3.55h31.254
	c-2.375-1.825-6.777-3.181-12.045-3.608c0.041-14.716,4.928-18.667,4.928-18.667s0.887,0.885,0.861,3.915
	c-0.023,2.522-1.344,5.413-1.344,5.413s2.307-1.393,4.182-3.806c1.877-2.412,0.162-6.058,0.162-6.058
	c4.934,1.662,4.182,7.667,4.182,7.667c0.537-0.43,1.689-0.99,1.689-4.958c0-3.967-3.941-6.193-3.941-6.193
	C34.53,7.877,37.532,11.095,37.532,11.095"/>
</svg>
