<?xml version="1.0" encoding="utf-8"?>
<!-- Generator: Adobe Illustrator 13.0.0, SVG Export Plug-In . SVG Version: 6.00 Build 14948)  -->
<svg version="1.2" baseProfile="tiny" id="Capa_1" xmlns="http://www.w3.org/2000/svg" xmlns:xlink="http://www.w3.org/1999/xlink"
	 x="0px" y="0px" width="30.98px" height="30.999px" viewBox="0 0 30.98 30.999" xml:space="preserve">
<path fill="#E60000" d="M23.471,19.242c0-1.596-0.509-3.077-1.379-4.309c0.511-1.182,1.24-2.875,1.359-3.172
	c0.223-0.558,0.35-1.133,0.35-1.716c0.018-1.185-0.6-2.335-1.557-3.031c-0.959-0.711-2.182-1.084-3.635-1.219
	c-1.185-0.108-2.23-0.147-3.157-0.147c-0.05,0-0.099,0.002-0.147,0.002h-0.004c-0.059,0-0.116-0.002-0.174-0.002
	c-0.93,0-1.974,0.04-3.16,0.147c-1.451,0.135-2.675,0.509-3.631,1.219c-0.961,0.694-1.579,1.846-1.56,3.034
	c0,0.58,0.127,1.157,0.35,1.714c0.121,0.299,0.867,2.032,1.378,3.213c-0.851,1.225-1.351,2.689-1.351,4.266
	c0,4.274,3.652,7.743,8.159,7.743S23.471,23.516,23.471,19.242 M20.846,10.722c-0.054,0.139-0.491,1.158-0.914,2.138
	c-1.314-0.859-2.904-1.365-4.619-1.365c-1.732,0-3.334,0.518-4.656,1.391c-0.424-0.987-0.87-2.025-0.925-2.165
	c-0.114-0.283-0.151-0.505-0.151-0.672c0.021-0.334,0.079-0.496,0.439-0.79c0.361-0.279,1.095-0.572,2.2-0.669
	c1.102-0.1,2.059-0.137,2.907-0.137h0.05h0.099h0.012c0.005,0,0.01,0.001,0.014,0.001c0.051-0.001,0.1-0.001,0.151-0.001
	c0.847,0,1.802,0.037,2.905,0.138c1.105,0.095,1.838,0.389,2.201,0.667c0.357,0.295,0.418,0.457,0.438,0.788
	C20.996,10.214,20.959,10.439,20.846,10.722 M21.117,1.128l2.184,2.185l-2.084,2.083c0.589,0.222,1.119,0.501,1.585,0.849
	c0.051,0.035,0.095,0.079,0.145,0.119l1.702-1.702l1.348-1.348L24.6,1.915c0.39,0,0.793,0,1.197-0.001
	c1.227-0.001,2.455-0.003,3.275-0.005c-0.001,0.863-0.004,2.174-0.004,3.461c-0.002,0.342-0.002,0.681-0.002,1.012l-0.037-0.037
	l-1.348-1.348l-1.348,1.348L24.4,8.28c0.232,0.564,0.363,1.165,0.354,1.765c0,0.206-0.017,0.413-0.043,0.619l2.971-2.97l2.169,2.17
	l0.002-0.002c0.118,0.119,0.28,0.192,0.46,0.192c0.361,0,0.654-0.294,0.654-0.656c0-0.313,0.014-8.259,0.014-8.474
	C30.98,0.415,30.567,0,30.057,0h-0.008c-0.354,0-8.115,0.014-8.464,0.014c-0.362,0-0.656,0.293-0.656,0.655
	C20.929,0.849,21.002,1.009,21.117,1.128 M0.668,10.054c0.18,0,0.342-0.073,0.46-0.192l0.001,0.002l2.169-2.17l2.533,2.533
	c0-0.054-0.008-0.11-0.008-0.164C5.812,9.351,5.985,8.646,6.302,8L4.646,6.345L3.298,4.997L1.949,6.345L1.915,6.382
	C1.914,6.051,1.913,5.712,1.913,5.37C1.911,4.085,1.908,2.772,1.907,1.909C2.729,1.91,3.959,1.912,5.186,1.914
	C5.59,1.915,5.992,1.915,6.379,1.915L4.983,3.313l1.348,1.348l1.527,1.527C8.386,5.812,8.981,5.514,9.656,5.29L7.681,3.313
	l2.183-2.185H9.862c0.116-0.119,0.189-0.279,0.189-0.459c0-0.362-0.294-0.655-0.656-0.655C9.048,0.014,1.284,0,0.932,0H0.923
	C0.413,0,0,0.415,0,0.924c0,0.215,0.011,8.161,0.011,8.474C0.011,9.76,0.306,10.054,0.668,10.054 M9.863,29.871l-2.182-2.179
	l1.788-1.786c-0.501-0.4-0.949-0.855-1.351-1.347l-1.784,1.785l-1.348,1.348l1.348,1.35l0.044,0.045
	c-0.389,0-0.791,0.002-1.195,0.002c-1.226,0-2.453,0.001-3.276,0.003c0.001-0.861,0.004-2.174,0.006-3.46
	c0-0.343,0.001-0.684,0.002-1.012l0.038,0.04l1.349,1.347L4.65,24.66l2.202-2.204c-0.28-0.67-0.475-1.382-0.572-2.122L3.302,23.31
	l-2.173-2.173H1.128c-0.118-0.116-0.28-0.189-0.46-0.189c-0.362,0-0.657,0.294-0.657,0.656C0.011,21.917,0,29.861,0,30.076
	c0,0.511,0.413,0.923,0.922,0.923h0.001h0.009c0.353,0,8.116-0.011,8.464-0.011c0.362,0,0.656-0.294,0.656-0.655
	C10.052,30.152,9.979,29.992,9.863,29.871L9.863,29.871z M30.313,20.948c-0.18,0-0.342,0.073-0.46,0.189h-0.002l-2.173,2.173
	l-3.294-3.292c-0.071,0.761-0.251,1.491-0.515,2.18l2.461,2.462l1.348,1.347l1.389-1.387c0,0.328,0,0.669,0.002,1.012
	c0,1.286,0.003,2.599,0.004,3.46c-0.822-0.002-2.053-0.003-3.279-0.003c-0.402,0-0.805-0.002-1.192-0.002l0.045-0.045l1.347-1.35
	l-1.347-1.348l-1.983-1.983c-0.385,0.505-0.826,0.967-1.314,1.379l1.949,1.952l-2.18,2.179v0.001
	c-0.115,0.12-0.188,0.28-0.188,0.461c0,0.361,0.294,0.655,0.656,0.655c0.349,0,8.11,0.011,8.464,0.011h0.008
	c0.511,0.002,0.924-0.412,0.924-0.923c0-0.215-0.014-8.159-0.014-8.472C30.967,21.242,30.674,20.948,30.313,20.948"/>
</svg>
